<svg width="25" height="24" viewBox="0 0 25 24" fill="none" xmlns="http://www.w3.org/2000/svg">
<path d="M6.09204 6.93604L7.40166 11.185M13.1609 16.794L17.5273 18.069" stroke="#5E47D3" stroke-width="2" stroke-linecap="round" stroke-linejoin="round"/>
<path d="M12.0002 12.3171L17.9156 6.55811" stroke="#5E47D3" stroke-width="2" stroke-linecap="round" stroke-linejoin="round"/>
<path d="M5.64937 7C6.50028 7 7.19009 6.32843 7.19009 5.5C7.19009 4.67157 6.50028 4 5.64937 4C4.79845 4 4.10864 4.67157 4.10864 5.5C4.10864 6.32843 4.79845 7 5.64937 7Z" stroke="#5E47D3" stroke-width="2" stroke-linecap="round" stroke-linejoin="round"/>
<path d="M19.0023 7C19.8532 7 20.543 6.32843 20.543 5.5C20.543 4.67157 19.8532 4 19.0023 4C18.1514 4 17.4615 4.67157 17.4615 5.5C17.4615 6.32843 18.1514 7 19.0023 7Z" stroke="#5E47D3" stroke-width="2" stroke-linecap="round" stroke-linejoin="round"/>
<path d="M19.0023 20C19.8532 20 20.543 19.3284 20.543 18.5C20.543 17.6716 19.8532 17 19.0023 17C18.1514 17 17.4615 17.6716 17.4615 18.5C17.4615 19.3284 18.1514 20 19.0023 20Z" stroke="#5E47D3" stroke-width="2" stroke-linecap="round" stroke-linejoin="round"/>
<path d="M8.73081 20C11.2836 20 13.353 17.9853 13.353 15.5C13.353 13.0147 11.2836 11 8.73081 11C6.17806 11 4.10864 13.0147 4.10864 15.5C4.10864 17.9853 6.17806 20 8.73081 20Z" stroke="#5E47D3" stroke-width="2" stroke-linecap="round" stroke-linejoin="round"/>
</svg>
