<svg width="24" height="24" viewBox="0 0 24 24" fill="none" xmlns="http://www.w3.org/2000/svg">
<path d="M19.1145 16.6047H17.6733C17.5749 16.6047 17.4826 16.6486 17.4211 16.7261C17.2776 16.904 17.1238 17.0756 16.9619 17.2388C16.2995 17.9158 15.5148 18.4553 14.6514 18.8274C13.7568 19.2132 12.7953 19.4111 11.8242 19.4093C10.8422 19.4093 9.89095 19.2126 8.9971 18.8274C8.13364 18.4553 7.34901 17.9158 6.6866 17.2388C6.023 16.5642 5.49386 15.7645 5.12849 14.8842C4.74922 13.9716 4.55856 13.0026 4.55856 12C4.55856 10.9975 4.75127 10.0284 5.12849 9.11584C5.49342 8.23467 6.01825 7.44142 6.6866 6.76119C7.35494 6.08096 8.13194 5.54514 8.9971 5.17259C9.89095 4.78747 10.8422 4.59073 11.8242 4.59073C12.8062 4.59073 13.7575 4.78538 14.6514 5.17259C15.5165 5.54514 16.2935 6.08096 16.9619 6.76119C17.1238 6.92654 17.2755 7.09816 17.4211 7.27398C17.4826 7.35142 17.5769 7.39537 17.6733 7.39537H19.1145C19.2437 7.39537 19.3236 7.24886 19.2519 7.13793C17.6794 4.64305 14.9281 2.99166 11.8017 3.00003C6.88956 3.01259 2.95125 7.08351 3.00046 12.0921C3.04966 17.0212 6.98182 21 11.8242 21C14.9425 21 17.6815 19.3507 19.2519 16.8621C19.3216 16.7512 19.2437 16.6047 19.1145 16.6047ZM20.9371 11.8682L18.0279 9.52397C17.9193 9.43607 17.7614 9.5156 17.7614 9.65583V11.2465H11.324C11.2338 11.2465 11.16 11.3219 11.16 11.414V12.5861C11.16 12.6782 11.2338 12.7535 11.324 12.7535H17.7614V14.3442C17.7614 14.4844 17.9213 14.564 18.0279 14.4761L20.9371 12.1319C20.9567 12.1162 20.9725 12.0962 20.9834 12.0734C20.9943 12.0505 21 12.0254 21 12C21 11.9746 20.9943 11.9495 20.9834 11.9267C20.9725 11.9038 20.9567 11.8838 20.9371 11.8682Z" fill="white"/>
</svg>
