<svg width="26" height="24" viewBox="0 0 26 24" fill="none" xmlns="http://www.w3.org/2000/svg">
<path d="M15.1946 10H16.2217C17.2489 10 17.2489 11 18.2925 13.527C19.3032 16 19.3032 17 20.3303 17H21.3575" stroke="white" stroke-width="2" stroke-linecap="round" stroke-linejoin="round"/>
<path d="M14.1674 17C15.7081 17 17.2488 15 18.276 13.5C19.3031 12 20.8438 10 22.3846 10" stroke="white" stroke-width="2" stroke-linecap="round" stroke-linejoin="round"/>
<path d="M3.89587 19C3.89587 20.5 4.40945 21 5.95017 21C7.4909 21 8.00447 17 9.03162 12C10.0588 7 10.5723 3 12.1131 3C13.6538 3 14.1674 3.5 14.1674 5" stroke="white" stroke-width="2" stroke-linecap="round" stroke-linejoin="round"/>
<path d="M5.9502 12H12.1131" stroke="white" stroke-width="2" stroke-linecap="round" stroke-linejoin="round"/>
</svg>
