<svg width="25" height="24" viewBox="0 0 25 24" fill="none" xmlns="http://www.w3.org/2000/svg">
<path d="M14.3801 10H15.4073C16.4344 10 16.4344 11 17.478 13.527C18.4887 16 18.4887 17 19.5159 17H20.543" stroke="#5E47D3" stroke-width="2" stroke-linecap="round" stroke-linejoin="round"/>
<path d="M13.3529 17C14.8936 17 16.4344 15 17.4615 13.5C18.4887 12 20.0294 10 21.5701 10" stroke="#5E47D3" stroke-width="2" stroke-linecap="round" stroke-linejoin="round"/>
<path d="M3.08142 19C3.08142 20.5 3.595 21 5.13572 21C6.67644 21 7.19002 17 8.21717 12C9.24432 7 9.75789 3 11.2986 3C12.8393 3 13.3529 3.5 13.3529 5" stroke="#5E47D3" stroke-width="2" stroke-linecap="round" stroke-linejoin="round"/>
<path d="M5.13574 12H11.2986" stroke="#5E47D3" stroke-width="2" stroke-linecap="round" stroke-linejoin="round"/>
</svg>
