<svg width="25" height="24" viewBox="0 0 25 24" fill="none" xmlns="http://www.w3.org/2000/svg">
<path d="M9.24434 11C11.5135 11 13.3529 9.20914 13.3529 7C13.3529 4.79086 11.5135 3 9.24434 3C6.97522 3 5.13574 4.79086 5.13574 7C5.13574 9.20914 6.97522 11 9.24434 11Z" stroke="#5E47D3" stroke-width="2" stroke-linecap="round" stroke-linejoin="round"/>
<path d="M3.08142 21V19C3.08142 17.9391 3.51429 16.9217 4.2848 16.1716C5.05531 15.4214 6.10035 15 7.19002 15H11.2986C12.3883 15 13.4333 15.4214 14.2038 16.1716C14.9743 16.9217 15.4072 17.9391 15.4072 19V21" stroke="#5E47D3" stroke-width="2" stroke-linecap="round" stroke-linejoin="round"/>
<path d="M16.4344 3.12988C17.3182 3.35018 18.1016 3.85058 18.6609 4.55219C19.2203 5.2538 19.524 6.11671 19.524 7.00488C19.524 7.89305 19.2203 8.75596 18.6609 9.45757C18.1016 10.1592 17.3182 10.6596 16.4344 10.8799" stroke="#5E47D3" stroke-width="2" stroke-linecap="round" stroke-linejoin="round"/>
<path d="M21.5701 20.9999V18.9999C21.5649 18.1171 21.2598 17.2607 20.7024 16.5643C20.145 15.8679 19.3667 15.3706 18.4886 15.1499" stroke="#5E47D3" stroke-width="2" stroke-linecap="round" stroke-linejoin="round"/>
</svg>
