<svg width="70" height="23" viewBox="0 0 70 23" fill="none" xmlns="http://www.w3.org/2000/svg">
<path d="M0.1 22V0.999999H9.49C10.87 0.999999 12.12 1.31 13.24 1.93C14.38 2.53 15.28 3.37 15.94 4.45C16.62 5.53 16.96 6.79 16.96 8.23C16.96 9.63 16.63 10.87 15.97 11.95C15.31 13.01 14.44 13.85 13.36 14.47L15.28 17.83C15.36 17.95 15.46 18.05 15.58 18.13C15.7 18.19 15.84 18.22 16 18.22H18.04V22H15.34C14.5 22 13.73 21.79 13.03 21.37C12.35 20.95 11.81 20.4 11.41 19.72L9.04 15.46C8.86 15.46 8.67 15.46 8.47 15.46C8.29 15.46 8.11 15.46 7.93 15.46H4.39V22H0.1ZM4.39 11.68H8.98C9.66 11.68 10.28 11.55 10.84 11.29C11.4 11.01 11.84 10.61 12.16 10.09C12.5 9.57 12.67 8.95 12.67 8.23C12.67 7.51 12.5 6.89 12.16 6.37C11.82 5.85 11.37 5.46 10.81 5.2C10.27 4.92 9.66 4.78 8.98 4.78H4.39V11.68ZM35.3385 22.33C34.1585 22.33 33.0885 22.06 32.1285 21.52C31.1885 20.98 30.4485 20.24 29.9085 19.3C29.3685 18.36 29.0985 17.28 29.0985 16.06V6.4C29.0985 6.04 29.0085 5.71 28.8285 5.41C28.6485 5.11 28.4085 4.87 28.1085 4.69C27.8085 4.51 27.4785 4.42 27.1185 4.42C26.7585 4.42 26.4285 4.51 26.1285 4.69C25.8485 4.87 25.6185 5.11 25.4385 5.41C25.2585 5.71 25.1685 6.04 25.1685 6.4V22H20.8785V6.91C20.8785 5.75 21.1385 4.7 21.6585 3.76C22.1785 2.82 22.9085 2.07 23.8485 1.51C24.7885 0.929999 25.8785 0.64 27.1185 0.64C28.3785 0.64 29.4785 0.929999 30.4185 1.51C31.3585 2.07 32.0885 2.82 32.6085 3.76C33.1285 4.7 33.3885 5.75 33.3885 6.91V16.57C33.3885 16.93 33.4785 17.26 33.6585 17.56C33.8385 17.86 34.0685 18.1 34.3485 18.28C34.6485 18.46 34.9785 18.55 35.3385 18.55C35.6985 18.55 36.0285 18.46 36.3285 18.28C36.6285 18.1 36.8685 17.86 37.0485 17.56C37.2285 17.26 37.3185 16.93 37.3185 16.57V6.91C37.3185 5.75 37.5785 4.7 38.0985 3.76C38.6185 2.82 39.3485 2.07 40.2885 1.51C41.2485 0.929999 42.3485 0.64 43.5885 0.64C44.8485 0.64 45.9385 0.929999 46.8585 1.51C47.7985 2.07 48.5285 2.82 49.0485 3.76C49.5685 4.7 49.8285 5.75 49.8285 6.91V22H45.5385V6.4C45.5385 6.04 45.4485 5.71 45.2685 5.41C45.1085 5.11 44.8785 4.87 44.5785 4.69C44.2785 4.51 43.9485 4.42 43.5885 4.42C43.2285 4.42 42.8985 4.51 42.5985 4.69C42.2985 4.87 42.0585 5.11 41.8785 5.41C41.6985 5.71 41.6085 6.04 41.6085 6.4V16.06C41.6085 17.28 41.3285 18.36 40.7685 19.3C40.2285 20.24 39.4885 20.98 38.5485 21.52C37.6085 22.06 36.5385 22.33 35.3385 22.33ZM54.2973 22V18.22H63.2973C63.7373 18.22 64.1373 18.11 64.4973 17.89C64.8573 17.67 65.1473 17.38 65.3673 17.02C65.5873 16.64 65.6973 16.23 65.6973 15.79C65.6973 15.33 65.5873 14.92 65.3673 14.56C65.1473 14.18 64.8573 13.88 64.4973 13.66C64.1373 13.44 63.7373 13.33 63.2973 13.33H59.7873C58.6073 13.33 57.5373 13.09 56.5773 12.61C55.6173 12.13 54.8473 11.44 54.2673 10.54C53.7073 9.62 53.4273 8.52 53.4273 7.24C53.4273 5.98 53.6973 4.89 54.2373 3.97C54.7773 3.03 55.5073 2.3 56.4273 1.78C57.3473 1.26 58.3673 0.999999 59.4873 0.999999H68.6073V4.78H59.9073C59.5073 4.78 59.1373 4.89 58.7973 5.11C58.4573 5.31 58.1873 5.58 57.9873 5.92C57.8073 6.26 57.7173 6.64 57.7173 7.06C57.7173 7.48 57.8073 7.86 57.9873 8.2C58.1873 8.54 58.4573 8.81 58.7973 9.01C59.1373 9.21 59.5073 9.31 59.9073 9.31H63.5373C64.8373 9.31 65.9673 9.56 66.9273 10.06C67.8873 10.56 68.6273 11.26 69.1473 12.16C69.6873 13.06 69.9573 14.11 69.9573 15.31C69.9573 16.73 69.6773 17.94 69.1173 18.94C68.5773 19.94 67.8373 20.7 66.8973 21.22C65.9773 21.74 64.9573 22 63.8373 22H54.2973Z" fill="white"/>
</svg>
