<svg width="287" height="46" viewBox="0 0 287 46" fill="none" xmlns="http://www.w3.org/2000/svg">
<path d="M0.1 40L3.24 32.95H4.13L7.32 40H6.25L5.38 38L5.82 38.28H1.55L2.02 38L1.15 40H0.1ZM3.67 34.09L2.15 37.68L1.91 37.45H5.46L5.26 37.68L3.71 34.09H3.67ZM10.043 40.09C9.60305 40.09 9.21305 39.9867 8.87305 39.78C8.53971 39.5733 8.27971 39.2733 8.09305 38.88C7.91305 38.4867 7.82305 38.02 7.82305 37.48C7.82305 36.9333 7.91305 36.4667 8.09305 36.08C8.27971 35.6933 8.53971 35.3967 8.87305 35.19C9.21305 34.9767 9.60305 34.87 10.043 34.87C10.4764 34.87 10.8564 34.98 11.183 35.2C11.5164 35.4133 11.7364 35.7067 11.843 36.08H11.723V32.64H12.733V40H11.733V38.86H11.853C11.7397 39.24 11.5197 39.54 11.193 39.76C10.8664 39.98 10.483 40.09 10.043 40.09ZM10.293 39.3C10.7264 39.3 11.0764 39.1467 11.343 38.84C11.6097 38.5333 11.743 38.08 11.743 37.48C11.743 36.88 11.6097 36.43 11.343 36.13C11.0764 35.8233 10.7264 35.67 10.293 35.67C9.85305 35.67 9.49971 35.8233 9.23305 36.13C8.97305 36.43 8.84305 36.88 8.84305 37.48C8.84305 38.08 8.97305 38.5333 9.23305 38.84C9.49971 39.1467 9.85305 39.3 10.293 39.3ZM16.1368 40.09C15.6968 40.09 15.3068 39.9867 14.9668 39.78C14.6335 39.5733 14.3735 39.2733 14.1868 38.88C14.0068 38.4867 13.9168 38.02 13.9168 37.48C13.9168 36.9333 14.0068 36.4667 14.1868 36.08C14.3735 35.6933 14.6335 35.3967 14.9668 35.19C15.3068 34.9767 15.6968 34.87 16.1368 34.87C16.5701 34.87 16.9501 34.98 17.2768 35.2C17.6101 35.4133 17.8301 35.7067 17.9368 36.08H17.8168V32.64H18.8268V40H17.8268V38.86H17.9468C17.8335 39.24 17.6135 39.54 17.2868 39.76C16.9601 39.98 16.5768 40.09 16.1368 40.09ZM16.3868 39.3C16.8201 39.3 17.1701 39.1467 17.4368 38.84C17.7035 38.5333 17.8368 38.08 17.8368 37.48C17.8368 36.88 17.7035 36.43 17.4368 36.13C17.1701 35.8233 16.8201 35.67 16.3868 35.67C15.9468 35.67 15.5935 35.8233 15.3268 36.13C15.0668 36.43 14.9368 36.88 14.9368 37.48C14.9368 38.08 15.0668 38.5333 15.3268 38.84C15.5935 39.1467 15.9468 39.3 16.3868 39.3ZM23.0566 40V32.95H26.0466C26.7999 32.95 27.3766 33.1333 27.7766 33.5C28.1832 33.86 28.3866 34.36 28.3866 35C28.3866 35.64 28.1832 36.1433 27.7766 36.51C27.3766 36.8767 26.7999 37.06 26.0466 37.06H24.0966V40H23.0566ZM24.0966 36.23H25.9366C26.4099 36.23 26.7666 36.1233 27.0066 35.91C27.2466 35.6967 27.3666 35.3933 27.3666 35C27.3666 34.6133 27.2466 34.3133 27.0066 34.1C26.7666 33.8867 26.4099 33.78 25.9366 33.78H24.0966V36.23ZM29.4309 40V36.21C29.4309 36.0033 29.4243 35.7967 29.4109 35.59C29.4043 35.3767 29.3909 35.1667 29.3709 34.96H30.3509L30.4609 36.26H30.3009C30.3676 35.9467 30.4809 35.6867 30.6409 35.48C30.8009 35.2733 30.9943 35.12 31.2209 35.02C31.4543 34.92 31.6976 34.87 31.9509 34.87C32.0576 34.87 32.1476 34.8767 32.2209 34.89C32.2943 34.8967 32.3676 34.91 32.4409 34.93L32.4309 35.83C32.3176 35.7833 32.2176 35.7567 32.1309 35.75C32.0509 35.7367 31.9509 35.73 31.8309 35.73C31.5376 35.73 31.2876 35.7967 31.0809 35.93C30.8743 36.0567 30.7176 36.23 30.6109 36.45C30.5043 36.67 30.4509 36.9067 30.4509 37.16V40H29.4309ZM35.3121 40.09C34.8121 40.09 34.3788 39.9867 34.0121 39.78C33.6454 39.5667 33.3621 39.2667 33.1621 38.88C32.9621 38.4867 32.8621 38.02 32.8621 37.48C32.8621 36.94 32.9621 36.4767 33.1621 36.09C33.3621 35.6967 33.6454 35.3967 34.0121 35.19C34.3788 34.9767 34.8121 34.87 35.3121 34.87C35.8121 34.87 36.2454 34.9767 36.6121 35.19C36.9854 35.3967 37.2721 35.6967 37.4721 36.09C37.6788 36.4767 37.7821 36.94 37.7821 37.48C37.7821 38.02 37.6788 38.4867 37.4721 38.88C37.2721 39.2667 36.9854 39.5667 36.6121 39.78C36.2454 39.9867 35.8121 40.09 35.3121 40.09ZM35.3121 39.3C35.7521 39.3 36.1021 39.1467 36.3621 38.84C36.6221 38.5333 36.7521 38.08 36.7521 37.48C36.7521 36.88 36.6221 36.43 36.3621 36.13C36.1021 35.8233 35.7521 35.67 35.3121 35.67C34.8788 35.67 34.5321 35.8233 34.2721 36.13C34.0121 36.43 33.8821 36.88 33.8821 37.48C33.8821 38.08 34.0088 38.5333 34.2621 38.84C34.5221 39.1467 34.8721 39.3 35.3121 39.3ZM38.3727 42.21C38.266 42.21 38.1427 42.2 38.0027 42.18C37.856 42.16 37.7293 42.1267 37.6227 42.08V41.26C37.7093 41.2867 37.806 41.31 37.9127 41.33C38.0127 41.3567 38.1093 41.37 38.2027 41.37C38.4627 41.37 38.6593 41.2867 38.7927 41.12C38.9327 40.96 39.0027 40.6933 39.0027 40.32V34.96H40.0127V40.39C40.0127 40.99 39.8793 41.4433 39.6127 41.75C39.346 42.0567 38.9327 42.21 38.3727 42.21ZM38.9127 33.91V32.86H40.0927V33.91H38.9127ZM43.7829 40.09C42.9696 40.09 42.3296 39.86 41.8629 39.4C41.3962 38.94 41.1629 38.3033 41.1629 37.49C41.1629 36.9633 41.2629 36.5033 41.4629 36.11C41.6696 35.7167 41.9529 35.4133 42.3129 35.2C42.6796 34.98 43.1029 34.87 43.5829 34.87C44.0562 34.87 44.4529 34.97 44.7729 35.17C45.0929 35.37 45.3362 35.6533 45.5029 36.02C45.6696 36.38 45.7529 36.8067 45.7529 37.3V37.62H41.9529V37.04H45.0629L44.8929 37.17C44.8929 36.67 44.7796 36.2833 44.5529 36.01C44.3329 35.73 44.0129 35.59 43.5929 35.59C43.1262 35.59 42.7662 35.7533 42.5129 36.08C42.2596 36.4 42.1329 36.8433 42.1329 37.41V37.51C42.1329 38.1033 42.2762 38.55 42.5629 38.85C42.8562 39.15 43.2696 39.3 43.8029 39.3C44.0962 39.3 44.3696 39.26 44.6229 39.18C44.8829 39.0933 45.1296 38.9533 45.3629 38.76L45.6929 39.45C45.4596 39.6567 45.1762 39.8167 44.8429 39.93C44.5096 40.0367 44.1562 40.09 43.7829 40.09ZM49.1219 40.09C48.6152 40.09 48.1719 39.9867 47.7919 39.78C47.4185 39.5667 47.1285 39.2633 46.9219 38.87C46.7219 38.47 46.6219 37.9967 46.6219 37.45C46.6219 36.91 46.7252 36.4467 46.9319 36.06C47.1385 35.6733 47.4285 35.38 47.8019 35.18C48.1752 34.9733 48.6152 34.87 49.1219 34.87C49.4485 34.87 49.7652 34.9267 50.0719 35.04C50.3785 35.1467 50.6319 35.3 50.8319 35.5L50.5019 36.21C50.3152 36.03 50.1052 35.8967 49.8719 35.81C49.6385 35.7167 49.4119 35.67 49.1919 35.67C48.7119 35.67 48.3352 35.8233 48.0619 36.13C47.7885 36.4367 47.6519 36.88 47.6519 37.46C47.6519 38.0467 47.7885 38.4967 48.0619 38.81C48.3352 39.1233 48.7119 39.28 49.1919 39.28C49.4052 39.28 49.6285 39.24 49.8619 39.16C50.0952 39.0733 50.3085 38.9367 50.5019 38.75L50.8319 39.46C50.6252 39.66 50.3652 39.8167 50.0519 39.93C49.7452 40.0367 49.4352 40.09 49.1219 40.09ZM53.8719 40.09C53.3252 40.09 52.9119 39.9433 52.6319 39.65C52.3519 39.35 52.2119 38.9033 52.2119 38.31V35.74H51.2319V34.96H52.2119V33.63L53.2219 33.36V34.96H54.6219V35.74H53.2219V38.22C53.2219 38.5933 53.2885 38.86 53.4219 39.02C53.5552 39.18 53.7485 39.26 54.0019 39.26C54.1285 39.26 54.2385 39.25 54.3319 39.23C54.4319 39.2033 54.5219 39.1733 54.6019 39.14V39.96C54.5019 40 54.3852 40.03 54.2519 40.05C54.1185 40.0767 53.9919 40.09 53.8719 40.09Z" fill="#5E47D3"/>
<circle cx="29" cy="13" r="11.5" stroke="#5E47D3" stroke-width="3"/>
<path d="M216.1 40L219.24 32.95H220.13L223.32 40H222.25L221.38 38L221.82 38.28H217.55L218.02 38L217.15 40H216.1ZM219.67 34.09L218.15 37.68L217.91 37.45H221.46L221.26 37.68L219.71 34.09H219.67ZM226.043 40.09C225.603 40.09 225.213 39.9867 224.873 39.78C224.54 39.5733 224.28 39.2733 224.093 38.88C223.913 38.4867 223.823 38.02 223.823 37.48C223.823 36.9333 223.913 36.4667 224.093 36.08C224.28 35.6933 224.54 35.3967 224.873 35.19C225.213 34.9767 225.603 34.87 226.043 34.87C226.476 34.87 226.856 34.98 227.183 35.2C227.516 35.4133 227.736 35.7067 227.843 36.08H227.723V32.64H228.733V40H227.733V38.86H227.853C227.74 39.24 227.52 39.54 227.193 39.76C226.866 39.98 226.483 40.09 226.043 40.09ZM226.293 39.3C226.726 39.3 227.076 39.1467 227.343 38.84C227.61 38.5333 227.743 38.08 227.743 37.48C227.743 36.88 227.61 36.43 227.343 36.13C227.076 35.8233 226.726 35.67 226.293 35.67C225.853 35.67 225.5 35.8233 225.233 36.13C224.973 36.43 224.843 36.88 224.843 37.48C224.843 38.08 224.973 38.5333 225.233 38.84C225.5 39.1467 225.853 39.3 226.293 39.3ZM232.137 40.09C231.697 40.09 231.307 39.9867 230.967 39.78C230.633 39.5733 230.373 39.2733 230.187 38.88C230.007 38.4867 229.917 38.02 229.917 37.48C229.917 36.9333 230.007 36.4667 230.187 36.08C230.373 35.6933 230.633 35.3967 230.967 35.19C231.307 34.9767 231.697 34.87 232.137 34.87C232.57 34.87 232.95 34.98 233.277 35.2C233.61 35.4133 233.83 35.7067 233.937 36.08H233.817V32.64H234.827V40H233.827V38.86H233.947C233.833 39.24 233.613 39.54 233.287 39.76C232.96 39.98 232.577 40.09 232.137 40.09ZM232.387 39.3C232.82 39.3 233.17 39.1467 233.437 38.84C233.703 38.5333 233.837 38.08 233.837 37.48C233.837 36.88 233.703 36.43 233.437 36.13C233.17 35.8233 232.82 35.67 232.387 35.67C231.947 35.67 231.593 35.8233 231.327 36.13C231.067 36.43 230.937 36.88 230.937 37.48C230.937 38.08 231.067 38.5333 231.327 38.84C231.593 39.1467 231.947 39.3 232.387 39.3ZM239.057 40V32.95H242.037C242.79 32.95 243.373 33.13 243.787 33.49C244.2 33.8433 244.407 34.34 244.407 34.98C244.407 35.4 244.313 35.76 244.127 36.06C243.94 36.36 243.677 36.59 243.337 36.75C242.997 36.9033 242.597 36.98 242.137 36.98L242.297 36.82H242.567C242.84 36.82 243.083 36.89 243.297 37.03C243.517 37.17 243.697 37.3933 243.837 37.7L244.847 40H243.707L242.707 37.69C242.607 37.4167 242.45 37.24 242.237 37.16C242.03 37.08 241.773 37.04 241.467 37.04H240.097V40H239.057ZM240.097 36.25H241.867C242.367 36.25 242.743 36.1433 242.997 35.93C243.257 35.7167 243.387 35.41 243.387 35.01C243.387 34.6033 243.257 34.2967 242.997 34.09C242.743 33.8833 242.367 33.78 241.867 33.78H240.097V36.25ZM248.152 40.09C247.339 40.09 246.699 39.86 246.232 39.4C245.765 38.94 245.532 38.3033 245.532 37.49C245.532 36.9633 245.632 36.5033 245.832 36.11C246.039 35.7167 246.322 35.4133 246.682 35.2C247.049 34.98 247.472 34.87 247.952 34.87C248.425 34.87 248.822 34.97 249.142 35.17C249.462 35.37 249.705 35.6533 249.872 36.02C250.039 36.38 250.122 36.8067 250.122 37.3V37.62H246.322V37.04H249.432L249.262 37.17C249.262 36.67 249.149 36.2833 248.922 36.01C248.702 35.73 248.382 35.59 247.962 35.59C247.495 35.59 247.135 35.7533 246.882 36.08C246.629 36.4 246.502 36.8433 246.502 37.41V37.51C246.502 38.1033 246.645 38.55 246.932 38.85C247.225 39.15 247.639 39.3 248.172 39.3C248.465 39.3 248.739 39.26 248.992 39.18C249.252 39.0933 249.499 38.9533 249.732 38.76L250.062 39.45C249.829 39.6567 249.545 39.8167 249.212 39.93C248.879 40.0367 248.525 40.09 248.152 40.09ZM253.011 40.09C252.591 40.09 252.204 40.0367 251.851 39.93C251.498 39.8233 251.204 39.6733 250.971 39.48L251.281 38.79C251.528 38.9767 251.801 39.1167 252.101 39.21C252.401 39.3033 252.708 39.35 253.021 39.35C253.388 39.35 253.664 39.2867 253.851 39.16C254.038 39.0267 254.131 38.8467 254.131 38.62C254.131 38.4467 254.071 38.3067 253.951 38.2C253.838 38.0933 253.648 38.0133 253.381 37.96L252.421 37.77C251.994 37.6767 251.671 37.5167 251.451 37.29C251.231 37.0633 251.121 36.7733 251.121 36.42C251.121 36.12 251.201 35.8533 251.361 35.62C251.528 35.3867 251.761 35.2033 252.061 35.07C252.368 34.9367 252.724 34.87 253.131 34.87C253.504 34.87 253.851 34.9233 254.171 35.03C254.491 35.1367 254.758 35.29 254.971 35.49L254.651 36.16C254.444 35.9867 254.211 35.8533 253.951 35.76C253.691 35.66 253.428 35.61 253.161 35.61C252.788 35.61 252.511 35.68 252.331 35.82C252.151 35.96 252.061 36.1433 252.061 36.37C252.061 36.5433 252.114 36.6867 252.221 36.8C252.334 36.9067 252.511 36.99 252.751 37.05L253.711 37.24C254.164 37.3333 254.504 37.4867 254.731 37.7C254.958 37.9133 255.071 38.2 255.071 38.56C255.071 38.8733 254.984 39.1467 254.811 39.38C254.638 39.6133 254.398 39.79 254.091 39.91C253.784 40.03 253.424 40.09 253.011 40.09ZM258.421 40.09C257.921 40.09 257.488 39.9867 257.121 39.78C256.755 39.5667 256.471 39.2667 256.271 38.88C256.071 38.4867 255.971 38.02 255.971 37.48C255.971 36.94 256.071 36.4767 256.271 36.09C256.471 35.6967 256.755 35.3967 257.121 35.19C257.488 34.9767 257.921 34.87 258.421 34.87C258.921 34.87 259.355 34.9767 259.721 35.19C260.095 35.3967 260.381 35.6967 260.581 36.09C260.788 36.4767 260.891 36.94 260.891 37.48C260.891 38.02 260.788 38.4867 260.581 38.88C260.381 39.2667 260.095 39.5667 259.721 39.78C259.355 39.9867 258.921 40.09 258.421 40.09ZM258.421 39.3C258.861 39.3 259.211 39.1467 259.471 38.84C259.731 38.5333 259.861 38.08 259.861 37.48C259.861 36.88 259.731 36.43 259.471 36.13C259.211 35.8233 258.861 35.67 258.421 35.67C257.988 35.67 257.641 35.8233 257.381 36.13C257.121 36.43 256.991 36.88 256.991 37.48C256.991 38.08 257.118 38.5333 257.371 38.84C257.631 39.1467 257.981 39.3 258.421 39.3ZM263.862 40.09C263.255 40.09 262.799 39.9267 262.492 39.6C262.192 39.2667 262.042 38.7567 262.042 38.07V34.96H263.052V38.05C263.052 38.47 263.139 38.78 263.312 38.98C263.485 39.18 263.749 39.28 264.102 39.28C264.502 39.28 264.825 39.1467 265.072 38.88C265.319 38.6133 265.442 38.26 265.442 37.82V34.96H266.452V40H265.472V38.92H265.602C265.462 39.2933 265.239 39.5833 264.932 39.79C264.625 39.99 264.269 40.09 263.862 40.09ZM267.911 40V36.21C267.911 36.0033 267.905 35.7967 267.891 35.59C267.885 35.3767 267.871 35.1667 267.851 34.96H268.831L268.941 36.26H268.781C268.848 35.9467 268.961 35.6867 269.121 35.48C269.281 35.2733 269.475 35.12 269.701 35.02C269.935 34.92 270.178 34.87 270.431 34.87C270.538 34.87 270.628 34.8767 270.701 34.89C270.775 34.8967 270.848 34.91 270.921 34.93L270.911 35.83C270.798 35.7833 270.698 35.7567 270.611 35.75C270.531 35.7367 270.431 35.73 270.311 35.73C270.018 35.73 269.768 35.7967 269.561 35.93C269.355 36.0567 269.198 36.23 269.091 36.45C268.985 36.67 268.931 36.9067 268.931 37.16V40H267.911ZM273.843 40.09C273.336 40.09 272.893 39.9867 272.513 39.78C272.139 39.5667 271.849 39.2633 271.643 38.87C271.443 38.47 271.343 37.9967 271.343 37.45C271.343 36.91 271.446 36.4467 271.653 36.06C271.859 35.6733 272.149 35.38 272.523 35.18C272.896 34.9733 273.336 34.87 273.843 34.87C274.169 34.87 274.486 34.9267 274.793 35.04C275.099 35.1467 275.353 35.3 275.553 35.5L275.223 36.21C275.036 36.03 274.826 35.8967 274.593 35.81C274.359 35.7167 274.133 35.67 273.913 35.67C273.433 35.67 273.056 35.8233 272.783 36.13C272.509 36.4367 272.373 36.88 272.373 37.46C272.373 38.0467 272.509 38.4967 272.783 38.81C273.056 39.1233 273.433 39.28 273.913 39.28C274.126 39.28 274.349 39.24 274.583 39.16C274.816 39.0733 275.029 38.9367 275.223 38.75L275.553 39.46C275.346 39.66 275.086 39.8167 274.773 39.93C274.466 40.0367 274.156 40.09 273.843 40.09ZM278.855 40.09C278.042 40.09 277.402 39.86 276.935 39.4C276.468 38.94 276.235 38.3033 276.235 37.49C276.235 36.9633 276.335 36.5033 276.535 36.11C276.742 35.7167 277.025 35.4133 277.385 35.2C277.752 34.98 278.175 34.87 278.655 34.87C279.128 34.87 279.525 34.97 279.845 35.17C280.165 35.37 280.408 35.6533 280.575 36.02C280.742 36.38 280.825 36.8067 280.825 37.3V37.62H277.025V37.04H280.135L279.965 37.17C279.965 36.67 279.852 36.2833 279.625 36.01C279.405 35.73 279.085 35.59 278.665 35.59C278.198 35.59 277.838 35.7533 277.585 36.08C277.332 36.4 277.205 36.8433 277.205 37.41V37.51C277.205 38.1033 277.348 38.55 277.635 38.85C277.928 39.15 278.342 39.3 278.875 39.3C279.168 39.3 279.442 39.26 279.695 39.18C279.955 39.0933 280.202 38.9533 280.435 38.76L280.765 39.45C280.532 39.6567 280.248 39.8167 279.915 39.93C279.582 40.0367 279.228 40.09 278.855 40.09ZM283.714 40.09C283.294 40.09 282.907 40.0367 282.554 39.93C282.201 39.8233 281.907 39.6733 281.674 39.48L281.984 38.79C282.231 38.9767 282.504 39.1167 282.804 39.21C283.104 39.3033 283.411 39.35 283.724 39.35C284.091 39.35 284.367 39.2867 284.554 39.16C284.741 39.0267 284.834 38.8467 284.834 38.62C284.834 38.4467 284.774 38.3067 284.654 38.2C284.541 38.0933 284.351 38.0133 284.084 37.96L283.124 37.77C282.697 37.6767 282.374 37.5167 282.154 37.29C281.934 37.0633 281.824 36.7733 281.824 36.42C281.824 36.12 281.904 35.8533 282.064 35.62C282.231 35.3867 282.464 35.2033 282.764 35.07C283.071 34.9367 283.427 34.87 283.834 34.87C284.207 34.87 284.554 34.9233 284.874 35.03C285.194 35.1367 285.461 35.29 285.674 35.49L285.354 36.16C285.147 35.9867 284.914 35.8533 284.654 35.76C284.394 35.66 284.131 35.61 283.864 35.61C283.491 35.61 283.214 35.68 283.034 35.82C282.854 35.96 282.764 36.1433 282.764 36.37C282.764 36.5433 282.817 36.6867 282.924 36.8C283.037 36.9067 283.214 36.99 283.454 37.05L284.414 37.24C284.867 37.3333 285.207 37.4867 285.434 37.7C285.661 37.9133 285.774 38.2 285.774 38.56C285.774 38.8733 285.687 39.1467 285.514 39.38C285.341 39.6133 285.101 39.79 284.794 39.91C284.487 40.03 284.127 40.09 283.714 40.09Z" fill="#848FAC"/>
<circle cx="254" cy="13" r="11.5" stroke="#5E47D3" stroke-width="3"/>
<line x1="41.5" y1="11.5" x2="242.5" y2="11.5" stroke="#5E47D3" stroke-width="3" stroke-linecap="round"/>
</svg>
