<svg width="5" height="20" viewBox="0 0 5 20" fill="none" xmlns="http://www.w3.org/2000/svg">
<path d="M2.3335 12.2856C3.43806 12.2856 4.3335 11.3902 4.3335 10.2856C4.3335 9.18107 3.43806 8.28564 2.3335 8.28564C1.22893 8.28564 0.333496 9.18107 0.333496 10.2856C0.333496 11.3902 1.22893 12.2856 2.3335 12.2856Z" fill="#5E47D3"/>
<path d="M2.3335 4.66669C3.43806 4.66669 4.3335 3.77126 4.3335 2.66669C4.3335 1.56212 3.43806 0.666687 2.3335 0.666687C1.22893 0.666687 0.333496 1.56212 0.333496 2.66669C0.333496 3.77126 1.22893 4.66669 2.3335 4.66669Z" fill="#5E47D3"/>
<path d="M2.3335 19.9048C3.43806 19.9048 4.3335 19.0094 4.3335 17.9048C4.3335 16.8002 3.43806 15.9048 2.3335 15.9048C1.22893 15.9048 0.333496 16.8002 0.333496 17.9048C0.333496 19.0094 1.22893 19.9048 2.3335 19.9048Z" fill="#5E47D3"/>
</svg>
