<svg width="3" height="15" viewBox="0 0 3 15" fill="none" xmlns="http://www.w3.org/2000/svg">
<path d="M1.5 8.71436C2.32843 8.71436 3 8.04278 3 7.21436C3 6.38593 2.32843 5.71436 1.5 5.71436C0.671573 5.71436 0 6.38593 0 7.21436C0 8.04278 0.671573 8.71436 1.5 8.71436Z" fill="black"/>
<path d="M1.5 3C2.32843 3 3 2.32843 3 1.5C3 0.671573 2.32843 0 1.5 0C0.671573 0 0 0.671573 0 1.5C0 2.32843 0.671573 3 1.5 3Z" fill="black"/>
<path d="M1.5 14.4287C2.32843 14.4287 3 13.7571 3 12.9287C3 12.1003 2.32843 11.4287 1.5 11.4287C0.671573 11.4287 0 12.1003 0 12.9287C0 13.7571 0.671573 14.4287 1.5 14.4287Z" fill="black"/>
</svg>
