<svg width="72" height="23" viewBox="0 0 72 23" fill="none" xmlns="http://www.w3.org/2000/svg">
<path d="M0.129454 22V0.999999H9.87945C11.3595 0.999999 12.6995 1.32 13.8995 1.96C15.0995 2.58 16.0595 3.45 16.7795 4.57C17.4995 5.67 17.8595 6.96 17.8595 8.44C17.8595 9.72 17.5495 10.9 16.9295 11.98C16.3295 13.04 15.5195 13.9 14.4995 14.56L15.9095 16.9C16.0295 17.08 16.1595 17.22 16.2995 17.32C16.4595 17.4 16.6695 17.44 16.9295 17.44H18.6095V22H15.4895C14.4895 22 13.5995 21.78 12.8195 21.34C12.0395 20.88 11.4395 20.29 11.0195 19.57L8.88945 15.91C8.76945 15.91 8.64945 15.91 8.52945 15.91C8.40945 15.91 8.29945 15.91 8.19945 15.91H5.85945V22H0.129454ZM5.85945 11.35H9.27945C9.77945 11.35 10.2395 11.24 10.6595 11.02C11.0995 10.78 11.4395 10.44 11.6795 10C11.9395 9.56 12.0695 9.05 12.0695 8.47C12.0695 7.89 11.9395 7.39 11.6795 6.97C11.4195 6.55 11.0795 6.23 10.6595 6.01C10.2395 5.77 9.77945 5.65 9.27945 5.65H5.85945V11.35ZM21.4473 22V17.35H30.3873C30.7673 17.35 31.0873 17.27 31.3473 17.11C31.6273 16.95 31.8473 16.73 32.0073 16.45C32.1673 16.17 32.2473 15.87 32.2473 15.55C32.2473 15.21 32.1673 14.9 32.0073 14.62C31.8473 14.34 31.6273 14.12 31.3473 13.96C31.0873 13.8 30.7673 13.72 30.3873 13.72H27.4173C26.1573 13.72 25.0173 13.47 23.9973 12.97C22.9773 12.47 22.1573 11.76 21.5373 10.84C20.9373 9.9 20.6373 8.77 20.6373 7.45C20.6373 6.15 20.9273 5.02 21.5073 4.06C22.0873 3.08 22.8673 2.33 23.8473 1.81C24.8273 1.27 25.9173 0.999999 27.1173 0.999999H36.5373V5.65H27.8373C27.5173 5.65 27.2273 5.73 26.9673 5.89C26.7273 6.03 26.5373 6.22 26.3973 6.46C26.2573 6.7 26.1873 6.97 26.1873 7.27C26.1873 7.57 26.2573 7.85 26.3973 8.11C26.5373 8.35 26.7273 8.55 26.9673 8.71C27.2273 8.85 27.5173 8.92 27.8373 8.92H30.9873C32.3673 8.92 33.5673 9.18 34.5873 9.7C35.6273 10.22 36.4273 10.95 36.9873 11.89C37.5473 12.81 37.8273 13.9 37.8273 15.16C37.8273 16.6 37.5273 17.84 36.9273 18.88C36.3473 19.9 35.5573 20.68 34.5573 21.22C33.5773 21.74 32.4873 22 31.2873 22H21.4473ZM56.2988 22.36C55.0588 22.36 53.8988 22.1 52.8188 21.58C51.7588 21.06 50.8988 20.3 50.2388 19.3C49.5988 18.3 49.2788 17.11 49.2788 15.73V7.09C49.2788 6.79 49.2088 6.53 49.0688 6.31C48.9488 6.07 48.7788 5.89 48.5588 5.77C48.3388 5.65 48.0888 5.59 47.8088 5.59C47.5288 5.59 47.2788 5.65 47.0588 5.77C46.8388 5.89 46.6588 6.07 46.5188 6.31C46.3788 6.53 46.3088 6.79 46.3088 7.09V22H40.7588V7.3C40.7588 5.94 41.0788 4.76 41.7188 3.76C42.3588 2.76 43.2088 1.99 44.2688 1.45C45.3488 0.889998 46.5288 0.609998 47.8088 0.609998C49.0888 0.609998 50.2588 0.889998 51.3188 1.45C52.3788 1.99 53.2288 2.76 53.8688 3.76C54.5088 4.76 54.8288 5.94 54.8288 7.3V15.94C54.8288 16.22 54.8988 16.48 55.0388 16.72C55.1788 16.94 55.3588 17.12 55.5788 17.26C55.7988 17.38 56.0388 17.44 56.2988 17.44C56.5588 17.44 56.7988 17.38 57.0188 17.26C57.2588 17.12 57.4488 16.94 57.5888 16.72C57.7288 16.48 57.7988 16.22 57.7988 15.94V7.3C57.7988 5.94 58.1188 4.76 58.7588 3.76C59.3988 2.76 60.2488 1.99 61.3088 1.45C62.3888 0.889998 63.5688 0.609998 64.8488 0.609998C66.1088 0.609998 67.2688 0.889998 68.3288 1.45C69.3888 1.99 70.2388 2.76 70.8788 3.76C71.5188 4.76 71.8388 5.94 71.8388 7.3V22H66.3188V7.03C66.3188 6.75 66.2488 6.5 66.1088 6.28C65.9688 6.06 65.7888 5.89 65.5688 5.77C65.3488 5.65 65.1088 5.59 64.8488 5.59C64.5688 5.59 64.3088 5.65 64.0688 5.77C63.8488 5.89 63.6688 6.06 63.5288 6.28C63.4088 6.5 63.3488 6.75 63.3488 7.03V15.73C63.3488 17.11 63.0188 18.3 62.3588 19.3C61.6988 20.3 60.8388 21.06 59.7788 21.58C58.7188 22.1 57.5588 22.36 56.2988 22.36Z" fill="#5E47D3"/>
</svg>
