<svg width="46" height="46" viewBox="0 0 46 46" fill="none" xmlns="http://www.w3.org/2000/svg">
<path d="M22.75 9.75C21.143 9.75 19.5721 10.2265 18.236 11.1193C16.8998 12.0121 15.8584 13.281 15.2435 14.7657C14.6285 16.2503 14.4676 17.884 14.7811 19.4601C15.0946 21.0362 15.8685 22.4839 17.0048 23.6202C18.1411 24.7565 19.5888 25.5304 21.1649 25.8439C22.741 26.1574 24.3747 25.9965 25.8593 25.3815C27.344 24.7666 28.6129 23.7252 29.5057 22.389C30.3985 21.0529 30.875 19.482 30.875 17.875C30.875 15.7201 30.019 13.6535 28.4952 12.1298C26.9715 10.606 24.9049 9.75 22.75 9.75Z" fill="#848FAC"/>
<path d="M22.75 0C18.2505 0 13.852 1.33426 10.1108 3.83407C6.36957 6.33387 3.45364 9.88693 1.73175 14.044C0.00985719 18.201 -0.440669 22.7752 0.437145 27.1883C1.31496 31.6014 3.48169 35.655 6.66333 38.8367C9.84498 42.0183 13.8986 44.1851 18.3117 45.0629C22.7248 45.9407 27.299 45.4902 31.4561 43.7683C35.6131 42.0464 39.1661 39.1304 41.6659 35.3892C44.1657 31.648 45.5 27.2495 45.5 22.75C45.4931 16.7184 43.094 10.9359 38.8291 6.67092C34.5641 2.40596 28.7816 0.00688142 22.75 0ZM35.737 37.2547C35.7046 35.1233 34.8362 33.0899 33.3189 31.5926C31.8015 30.0953 29.7567 29.254 27.625 29.25H17.875C15.7433 29.254 13.6985 30.0953 12.1812 31.5926C10.6638 33.0899 9.7954 35.1233 9.76301 37.2547C6.81618 34.6235 4.73807 31.1592 3.80387 27.3206C2.86966 23.482 3.12342 19.4502 4.53155 15.759C5.93967 12.0679 8.43574 8.89146 11.6892 6.65042C14.9427 4.40938 18.8002 3.20942 22.7508 3.20942C26.7015 3.20942 30.5589 4.40938 33.8124 6.65042C37.0659 8.89146 39.562 12.0679 40.9701 15.759C42.3782 19.4502 42.632 23.482 41.6978 27.3206C40.7636 31.1592 38.6855 34.6235 35.7386 37.2547H35.737Z" fill="#848FAC"/>
</svg>
