<svg width="70" height="23" viewBox="0 0 70 23" fill="none" xmlns="http://www.w3.org/2000/svg">
<path d="M0.639454 22V0.999999H10.0295C11.4095 0.999999 12.6595 1.31 13.7795 1.93C14.9195 2.53 15.8195 3.37 16.4795 4.45C17.1595 5.53 17.4995 6.79 17.4995 8.23C17.4995 9.63 17.1695 10.87 16.5095 11.95C15.8495 13.01 14.9795 13.85 13.8995 14.47L15.8195 17.83C15.8995 17.95 15.9995 18.05 16.1195 18.13C16.2395 18.19 16.3795 18.22 16.5395 18.22H18.5795V22H15.8795C15.0395 22 14.2695 21.79 13.5695 21.37C12.8895 20.95 12.3495 20.4 11.9495 19.72L9.57945 15.46C9.39945 15.46 9.20945 15.46 9.00945 15.46C8.82945 15.46 8.64945 15.46 8.46945 15.46H4.92945V22H0.639454ZM4.92945 11.68H9.51945C10.1995 11.68 10.8195 11.55 11.3795 11.29C11.9395 11.01 12.3795 10.61 12.6995 10.09C13.0395 9.57 13.2095 8.95 13.2095 8.23C13.2095 7.51 13.0395 6.89 12.6995 6.37C12.3595 5.85 11.9095 5.46 11.3495 5.2C10.8095 4.92 10.1995 4.78 9.51945 4.78H4.92945V11.68ZM21.688 22V18.22H30.688C31.128 18.22 31.528 18.11 31.888 17.89C32.248 17.67 32.538 17.38 32.758 17.02C32.978 16.64 33.088 16.23 33.088 15.79C33.088 15.33 32.978 14.92 32.758 14.56C32.538 14.18 32.248 13.88 31.888 13.66C31.528 13.44 31.128 13.33 30.688 13.33H27.178C25.998 13.33 24.928 13.09 23.968 12.61C23.008 12.13 22.238 11.44 21.658 10.54C21.098 9.62 20.818 8.52 20.818 7.24C20.818 5.98 21.088 4.89 21.628 3.97C22.168 3.03 22.898 2.3 23.818 1.78C24.738 1.26 25.758 0.999999 26.878 0.999999H35.998V4.78H27.298C26.898 4.78 26.528 4.89 26.188 5.11C25.848 5.31 25.578 5.58 25.378 5.92C25.198 6.26 25.108 6.64 25.108 7.06C25.108 7.48 25.198 7.86 25.378 8.2C25.578 8.54 25.848 8.81 26.188 9.01C26.528 9.21 26.898 9.31 27.298 9.31H30.928C32.228 9.31 33.358 9.56 34.318 10.06C35.278 10.56 36.018 11.26 36.538 12.16C37.078 13.06 37.348 14.11 37.348 15.31C37.348 16.73 37.068 17.94 36.508 18.94C35.968 19.94 35.228 20.7 34.288 21.22C33.368 21.74 32.348 22 31.228 22H21.688ZM55.2573 22.33C54.0773 22.33 53.0073 22.06 52.0473 21.52C51.1073 20.98 50.3673 20.24 49.8273 19.3C49.2873 18.36 49.0173 17.28 49.0173 16.06V6.4C49.0173 6.04 48.9273 5.71 48.7473 5.41C48.5673 5.11 48.3273 4.87 48.0273 4.69C47.7273 4.51 47.3973 4.42 47.0373 4.42C46.6773 4.42 46.3473 4.51 46.0473 4.69C45.7673 4.87 45.5373 5.11 45.3573 5.41C45.1773 5.71 45.0873 6.04 45.0873 6.4V22H40.7973V6.91C40.7973 5.75 41.0573 4.7 41.5773 3.76C42.0973 2.82 42.8273 2.07 43.7673 1.51C44.7073 0.929999 45.7973 0.64 47.0373 0.64C48.2973 0.64 49.3973 0.929999 50.3373 1.51C51.2773 2.07 52.0073 2.82 52.5273 3.76C53.0473 4.7 53.3073 5.75 53.3073 6.91V16.57C53.3073 16.93 53.3973 17.26 53.5773 17.56C53.7573 17.86 53.9873 18.1 54.2673 18.28C54.5673 18.46 54.8973 18.55 55.2573 18.55C55.6173 18.55 55.9473 18.46 56.2473 18.28C56.5473 18.1 56.7873 17.86 56.9673 17.56C57.1473 17.26 57.2373 16.93 57.2373 16.57V6.91C57.2373 5.75 57.4973 4.7 58.0173 3.76C58.5373 2.82 59.2673 2.07 60.2073 1.51C61.1673 0.929999 62.2673 0.64 63.5073 0.64C64.7673 0.64 65.8573 0.929999 66.7773 1.51C67.7173 2.07 68.4473 2.82 68.9673 3.76C69.4873 4.7 69.7473 5.75 69.7473 6.91V22H65.4573V6.4C65.4573 6.04 65.3673 5.71 65.1873 5.41C65.0273 5.11 64.7973 4.87 64.4973 4.69C64.1973 4.51 63.8673 4.42 63.5073 4.42C63.1473 4.42 62.8173 4.51 62.5173 4.69C62.2173 4.87 61.9773 5.11 61.7973 5.41C61.6173 5.71 61.5273 6.04 61.5273 6.4V16.06C61.5273 17.28 61.2473 18.36 60.6873 19.3C60.1473 20.24 59.4073 20.98 58.4673 21.52C57.5273 22.06 56.4573 22.33 55.2573 22.33Z" fill="white"/>
</svg>
